<?xml version="1.0" encoding="utf-8"?>
<!-- Uploaded to: SVG Repo, www.svgrepo.com, Generator: SVG Repo Mixer Tools -->
<svg width="800px" height="800px" viewBox="0 0 312 312" xmlns="http://www.w3.org/2000/svg">
  <g id="empty_inbox" data-name="empty inbox" transform="translate(-2956.982 -3048.416)">
    <path id="Path_26" data-name="Path 26" d="M3268.982,3078.286a29.869,29.869,0,0,0-29.869-29.87H2986.851a29.869,29.869,0,0,0-29.869,29.87v252.259a29.87,29.87,0,0,0,29.869,29.871h252.262a29.87,29.87,0,0,0,29.869-29.871Zm-281.9-4.87H3239.3a5.378,5.378,0,0,1,5.684,5.268v141.732h-73.54a12.038,12.038,0,0,0-12.114,12.025,47.854,47.854,0,0,1-95.668,1.918,11.273,11.273,0,0,0,.162-1.906,12.049,12.049,0,0,0-12.116-12.037h-70.724V3078.684C2980.982,3075.574,2983.97,3073.416,2987.08,3073.416Zm252.218,263H2987.08c-3.11,0-6.1-2.4-6.1-5.514v-86.486h59.426a72.092,72.092,0,0,0,142.13,0h62.444V3330.9A5.577,5.577,0,0,1,3239.3,3336.416Z" fill="#453c5c"/>
  </g>
</svg>